<?xml version="1.0" encoding="UTF-8" standalone="no"?>
<!DOCTYPE svg PUBLIC "-//W3C//DTD SVG 1.1//EN" "http://www.w3.org/Graphics/SVG/1.1/DTD/svg11.dtd">
<svg width="100%" height="100%" viewBox="0 0 800 800" version="1.1" xmlns="http://www.w3.org/2000/svg" xmlns:xlink="http://www.w3.org/1999/xlink" xml:space="preserve" xmlns:serif="http://www.serif.com/" style="fill-rule:evenodd;clip-rule:evenodd;stroke-linejoin:round;stroke-miterlimit:2;">
    <g id="background.roundedrect" transform="matrix(2.309,0,0,3.19422,-16.1926,0)">
        <path d="M353.484,78.266C353.484,35.041 305.008,0 245.211,0L115.285,0C55.488,0 7.013,35.041 7.013,78.266L7.013,172.186C7.013,215.412 55.488,250.453 115.285,250.453L245.211,250.453C305.008,250.453 353.484,215.412 353.484,172.186L353.484,78.266Z" style="fill:rgb(244,244,244);"/>
    </g>
    <g id="map" transform="matrix(2.47295,0,0,2.47295,-963.487,-535.394)">
        <g id="map1" serif:id="map">
            <g id="background" transform="matrix(0.404375,0,0,0.404375,389.61,216.5)">
                <path d="M250,800L550,800C688.071,800 800,688.071 800,550L800,250C800,111.929 688.071,0 550,-0L250,0C111.929,0 0,111.929 0,250L0,550C0,688.071 111.929,800 250,800Z" style="fill:rgb(244,244,244);"/>
            </g>
            <g id="background1" serif:id="background" transform="matrix(0.404375,0,0,0.404375,389.61,216.5)">
                <path d="M131.332,29.904C166.648,10.826 207.06,0 250,0L550,-0C688.071,0 800,111.929 800,250L800,263.536L728.478,316.235C710.917,329.174 689.949,336.683 668.166,337.835C629.783,339.864 567.441,343.159 531.293,345.07C512.654,346.056 494.066,342.351 477.229,334.295C419.349,306.6 277.137,238.553 193.056,198.321C153.353,179.324 128.523,138.766 129.658,94.766L131.332,29.904Z" style="fill:rgb(178,217,184);"/>
            </g>
            <g id="background2" serif:id="background" transform="matrix(0.404375,0,0,0.404375,389.61,216.5)">
                <path d="M0,334.438C19.962,327.61 41.098,324.322 62.453,324.863C150.635,327.097 309.989,331.134 347.109,332.074C352.311,332.206 357.439,333.34 362.211,335.415C365.003,336.629 368.417,338.114 372.11,339.72C393.115,348.853 404.931,371.375 400.509,393.848C400.509,393.849 400.509,393.849 400.509,393.849C400.061,396.126 399.156,398.289 397.848,400.206C391.001,410.249 368.019,443.952 354.541,463.717C351.908,467.579 350.967,472.35 351.937,476.922C352.907,481.495 355.704,485.473 359.678,487.933C375.93,497.992 401.477,513.803 417.324,523.612C420.969,525.868 423.497,529.552 424.291,533.764C425.086,537.977 424.072,542.328 421.499,545.756C421.498,545.757 421.498,545.757 421.498,545.758C419.064,549 414.589,549.907 411.085,547.869C398.655,540.639 370.574,524.306 357.165,516.507C352.253,513.65 347.72,510.188 343.671,506.201C340.133,502.718 335.473,498.129 330.844,493.571C320.566,483.451 319.753,467.145 328.974,456.053C338.806,444.226 350.93,429.64 358.914,420.036C364.495,413.322 367.983,405.119 368.947,396.442C368.947,396.441 368.947,396.441 368.947,396.441C370.712,380.549 362.06,365.323 347.504,358.705C346.695,358.337 345.889,357.971 345.091,357.608C333.257,352.229 320.425,349.396 307.427,349.293L249.752,348.839C249.965,450.59 245.536,551.636 236.941,652.027C300.271,654.461 363.819,656.798 427.496,659.426C439.436,648.581 451.366,637.583 463.273,626.381C473.64,616.591 483.164,605.948 491.747,594.562C502.469,580.386 518.18,559.544 531.54,541.818C547.87,520.155 553.61,492.304 547.177,465.949C538.456,430.225 527.288,384.469 527.288,384.469L581.234,412.881C581.234,412.881 583.802,438.516 585.661,457.061C585.968,460.125 588.109,462.692 591.068,463.544C594.027,464.395 597.206,463.359 599.094,460.927C606.024,452.003 613.504,442.372 613.504,442.372L659.217,497.117C572.263,584.669 487.968,663.032 406.78,736.121C489.707,757.797 578.21,765.947 672.062,761.144L670.604,769.038C641.847,784.904 609.643,795.27 575.4,798.725C507.95,794.095 441.222,782.522 375.16,764.47C361.753,776.445 348.44,788.281 335.22,800L267.93,800C310.856,761.89 354.759,724.388 398.779,685.226C331.329,684.608 263.58,682.98 195.542,680.338C194.557,686.928 193.24,695.713 192.053,703.576C190.058,716.974 185.444,729.848 178.474,741.463C170.12,755.421 161.527,768.428 152.661,780.342C143.941,776.652 135.473,772.481 127.289,767.862C136.716,754.814 145.29,740.933 152.934,726.147C156.744,718.79 159.654,711 161.6,702.947L167.345,679.186C122.288,677.253 77.101,674.877 31.77,672.057C26.462,662.585 21.752,652.734 17.693,642.555C81.898,645.818 146.47,648.505 211.301,651.034C223.3,550.236 228.304,449.433 223.581,348.633L67.044,347.399C43.814,347.216 20.973,352.015 0,361.299L0,334.438ZM800,257.696C768.483,277.405 735.129,296.857 698.799,318.101C692.262,321.925 685.284,324.941 678.019,327.082C639.968,338.246 570.71,345.119 520.131,334.484L623.162,394.705C632.453,395.728 654.29,392.957 675.163,382.755C675.851,382.407 676.69,382.608 677.145,383.231C677.601,383.853 677.539,384.714 676.999,385.264C667.766,394.7 653.32,409.429 653.32,409.429L688.502,462.035C688.502,462.035 726.322,428.19 746.527,410.109C747.731,409.033 749.523,408.946 750.824,409.901C752.126,410.856 752.581,412.591 751.915,414.062C734.461,454.075 722.126,502.733 721.52,537.305L747.63,633.62C747.332,564.75 753.851,486.22 789.824,416.621C791.002,414.353 792.264,412.13 793.61,409.956C795.024,407.666 797.237,404.086 800,399.618L800,257.696ZM437.603,-0L402.683,-0C299.38,88.928 181.374,180.348 52.303,273.64C49.326,275.791 47.337,279.046 46.78,282.676C46.224,286.306 47.147,290.007 49.343,292.951C49.343,292.951 49.344,292.952 49.344,292.952C52.855,297.658 59.5,298.663 64.245,295.205C194.466,200.183 313.05,98.969 437.603,-0Z" style="fill:white;"/>
            </g>
            <g id="background3" serif:id="background" transform="matrix(0.404375,0,0,0.404375,389.61,216.5)">
                <path d="M78.915,67.709C202.73,148.396 389.472,259.18 637.336,399.195C672.062,418.807 697.5,451.495 707.98,489.975C718.276,527.772 731.322,575.667 740.654,609.929C748.554,638.935 749.762,669.357 744.187,698.898L742.089,710.015C720.168,736.298 692.959,758.011 662.099,773.52L676.668,706.593C684.11,672.407 683.052,636.918 673.585,603.237C668.367,584.672 662.339,563.224 656.578,542.725C642.125,491.304 607.018,448.167 559.605,423.57C377.7,329.046 202.689,228.55 35.825,120.973C47.713,101.283 62.239,83.365 78.915,67.709Z" style="fill:rgb(249,227,157);"/>
            </g>
        </g>
        <g id="background.roundedrect1" serif:id="background.roundedrect" transform="matrix(0.404375,0,0,0.404375,389.61,216.5)">
            <path d="M572.057,0.96L227.943,0.96C100.209,12.119 0,119.357 0,250L0,550C0,685.047 107.08,795.085 240.963,799.84L559.037,799.84C692.92,795.085 800,685.047 800,550L800,250C800,119.357 699.791,12.119 572.057,0.96Z" style="fill:rgb(64,64,64);fill-opacity:0.15;"/>
        </g>
    </g>
    <g id="pin" transform="matrix(11.232,0,0,11.232,400,503.672)">
        <path d="M0,-18.46C2.683,-18.46 4.858,-16.285 4.858,-13.602C4.858,-10.919 2.683,-8.744 0,-8.744C-2.683,-8.744 -4.858,-10.919 -4.858,-13.602C-4.858,-16.285 -2.683,-18.46 0,-18.46M0,12.631C8.744,3.887 17.489,-3.943 17.489,-13.602C17.489,-23.261 9.659,-31.091 0,-31.091C-9.659,-31.091 -17.489,-23.261 -17.489,-13.602C-17.489,-3.943 -8.744,3.887 0,12.631" style="fill:rgb(229,115,115);fill-rule:nonzero;"/>
    </g>
</svg>
