<?xml version="1.0" encoding="UTF-8" standalone="no"?>
<!DOCTYPE svg PUBLIC "-//W3C//DTD SVG 1.1//EN" "http://www.w3.org/Graphics/SVG/1.1/DTD/svg11.dtd">
<svg width="100%" height="100%" viewBox="0 0 800 800" version="1.1" xmlns="http://www.w3.org/2000/svg" xmlns:xlink="http://www.w3.org/1999/xlink" xml:space="preserve" xmlns:serif="http://www.serif.com/" style="fill-rule:evenodd;clip-rule:evenodd;stroke-linejoin:round;stroke-miterlimit:2;">
    <g id="background.roundedrect" transform="matrix(2.309,0,0,3.19422,-16.1926,0)">
        <path d="M353.484,78.266C353.484,35.041 305.008,0 245.211,0L115.285,0C55.488,0 7.013,35.041 7.013,78.266L7.013,172.186C7.013,215.412 55.488,250.453 115.285,250.453L245.211,250.453C305.008,250.453 353.484,215.412 353.484,172.186L353.484,78.266Z" style="fill:rgb(229,229,229);"/>
    </g>
    <g transform="matrix(0.776127,0,0,0.776127,89.7697,148.196)">
        <path d="M225,246.822C225,150.237 303.415,71.822 400,71.822C496.585,71.822 575,150.237 575,246.822L575,548.411L225,548.411L225,246.822Z" style="fill:rgb(255,183,77);"/>
        <g transform="matrix(1,0,0,1,0.167505,-60.4202)">
            <path d="M690.783,590.285C690.783,567.174 672.02,548.411 648.909,548.411L150.187,548.411C127.076,548.411 108.313,567.174 108.313,590.285L108.313,674.033C108.313,697.143 127.076,715.906 150.187,715.906L648.909,715.906C672.02,715.906 690.783,697.143 690.783,674.033L690.783,590.285Z" style="fill:rgb(128,128,128);"/>
        </g>
        <g transform="matrix(1.16494,0,0,1.16494,-65.9011,-64.9636)">
            <g transform="matrix(0.898438,0.439101,-0.439101,0.898438,113.363,-203.188)">
                <path d="M503.167,38.772C503.167,29.239 495.428,21.5 485.895,21.5C476.363,21.5 468.624,29.239 468.624,38.772L468.624,100.147C468.624,109.68 476.363,117.419 485.895,117.419C495.428,117.419 503.167,109.68 503.167,100.147L503.167,38.772Z" style="fill:rgb(255,183,77);"/>
            </g>
            <g transform="matrix(1,0,0,1,-85.8953,-21.5002)">
                <path d="M503.167,38.772C503.167,29.239 495.428,21.5 485.895,21.5C476.363,21.5 468.624,29.239 468.624,38.772L468.624,100.147C468.624,109.68 476.363,117.419 485.895,117.419C495.428,117.419 503.167,109.68 503.167,100.147L503.167,38.772Z" style="fill:rgb(255,183,77);"/>
            </g>
            <g transform="matrix(0.493304,0.869857,-0.869857,0.493304,423.308,-296.394)">
                <path d="M503.167,38.772C503.167,29.239 495.428,21.5 485.895,21.5C476.363,21.5 468.624,29.239 468.624,38.772L468.624,100.147C468.624,109.68 476.363,117.419 485.895,117.419C495.428,117.419 503.167,109.68 503.167,100.147L503.167,38.772Z" style="fill:rgb(255,183,77);"/>
            </g>
            <g transform="matrix(-5.55112e-17,1,-1,-5.55112e-17,697.698,-181.193)">
                <path d="M503.167,38.772C503.167,29.239 495.428,21.5 485.895,21.5C476.363,21.5 468.624,29.239 468.624,38.772L468.624,100.147C468.624,109.68 476.363,117.419 485.895,117.419C495.428,117.419 503.167,109.68 503.167,100.147L503.167,38.772Z" style="fill:rgb(255,183,77);"/>
            </g>
            <g transform="matrix(-0.898438,0.439101,0.439101,0.898438,686.021,-203.188)">
                <path d="M503.167,38.772C503.167,29.239 495.428,21.5 485.895,21.5C476.363,21.5 468.624,29.239 468.624,38.772L468.624,100.147C468.624,109.68 476.363,117.419 485.895,117.419C495.428,117.419 503.167,109.68 503.167,100.147L503.167,38.772Z" style="fill:rgb(255,183,77);"/>
            </g>
            <g transform="matrix(-0.493304,0.869857,0.869857,0.493304,376.076,-296.394)">
                <path d="M503.167,38.772C503.167,29.239 495.428,21.5 485.895,21.5C476.363,21.5 468.624,29.239 468.624,38.772L468.624,100.147C468.624,109.68 476.363,117.419 485.895,117.419C495.428,117.419 503.167,109.68 503.167,100.147L503.167,38.772Z" style="fill:rgb(255,183,77);"/>
            </g>
            <g transform="matrix(5.55112e-17,1,1,-5.55112e-17,101.686,-181.193)">
                <path d="M503.167,38.772C503.167,29.239 495.428,21.5 485.895,21.5C476.363,21.5 468.624,29.239 468.624,38.772L468.624,100.147C468.624,109.68 476.363,117.419 485.895,117.419C495.428,117.419 503.167,109.68 503.167,100.147L503.167,38.772Z" style="fill:rgb(255,183,77);"/>
            </g>
        </g>
    </g>
</svg>
